<mxfile host="app.diagrams.net" modified="2024-02-24T07:35:13.181Z" agent="Mozilla/5.0 (Windows NT 10.0; Win64; x64) AppleWebKit/537.36 (KHTML, like Gecko) Chrome/121.0.0.0 Safari/537.36 Edg/121.0.0.0" version="23.1.6" etag="zZ_8Mi6x8TM2P2e8cx2h" type="github">
  <diagram name="Page-1" id="mzzUxDF7sPRyFSa58ONV">
    <mxGraphModel>
      <root>
        <mxCell id="0" />
        <mxCell id="1" parent="0" />
      </root>
    </mxGraphModel>
  </diagram>
</mxfile>
